PathFileType	4	(X/Y/Z)	/Volumes/GoogleDrive/My Drive/Research/Stanford/Projects/Digital Athlete Project/Sprinting/Sprint Simulation/sprinter/subjects/JA1/experimental_data/TRC/run0700cms.trc
DataRate	CameraRate	NumFrames	NumMarkers	Units	OrigDataRate	OrigDataStartFrame	OrigNumFrames
250.000000	250.000000	4	51	mm	250.000000	310	413
Frame#	Time	LPAT			RWR			LASI			LMFS			C7			LSH			RSH			RTHLD			T7			RTHLP			RARM			LLEPI			LLMAL			P3			RELB			RFOREARM			SACR			P1			P2			RTILAT			RTHAP			LTHLP			RLEPI			RPAT			LTIAD			LFOREARM			RLMAL			RP5MT			LTHLD			RMFL			LARM			LMFL			LTOE			RTHAD			MAN			RTOE			LTILAT			LHEEL			RHEEL			RMFS			LELB			RP1MT			RTIAP			LWR			RASI			LTHAP			LTHAD			LTIAP			RTIAD			LP5MT			LP1MT			
		X1	Y1	Z1	X2	Y2	Z2	X3	Y3	Z3	X4	Y4	Z4	X5	Y5	Z5	X6	Y6	Z6	X7	Y7	Z7	X8	Y8	Z8	X9	Y9	Z9	X10	Y10	Z10	X11	Y11	Z11	X12	Y12	Z12	X13	Y13	Z13	X14	Y14	Z14	X15	Y15	Z15	X16	Y16	Z16	X17	Y17	Z17	X18	Y18	Z18	X19	Y19	Z19	X20	Y20	Z20	X21	Y21	Z21	X22	Y22	Z22	X23	Y23	Z23	X24	Y24	Z24	X25	Y25	Z25	X26	Y26	Z26	X27	Y27	Z27	X28	Y28	Z28	X29	Y29	Z29	X30	Y30	Z30	X31	Y31	Z31	X32	Y32	Z32	X33	Y33	Z33	X34	Y34	Z34	X35	Y35	Z35	X36	Y36	Z36	X37	Y37	Z37	X38	Y38	Z38	X39	Y39	Z39	X40	Y40	Z40	X41	Y41	Z41	X42	Y42	Z42	X43	Y43	Z43	X44	Y44	Z44	X45	Y45	Z45	X46	Y46	Z46	X47	Y47	Z47	X48	Y48	Z48	X49	Y49	Z49	X50	Y50	Z50	X51	Y51	Z51	
310	1.240000	3106.780273	439.501251	199.791962	3032.444580	950.133240	587.561584	3294.473877	1005.540894	131.799026	2610.275635	661.520020	210.173004	3180.022461	1496.088867	244.544983	3222.926758	1483.362427	88.410568	3203.396240	1479.703003	419.849060	3391.844482	695.455444	436.435486	3112.922852	1309.429810	241.046295	3317.382324	779.560059	452.449860	3077.511963	1372.184570	506.755676	3058.984375	515.835327	133.545151	2684.398193	738.884521	158.238312	3075.383301	979.262390	256.434967	2966.888428	1298.087158	551.134033	3001.299072	1155.915405	573.520996	3113.846191	1064.764282	257.827942	3105.293457	1036.995605	205.747482	3100.024170	1034.586914	311.842255	3541.363281	359.265320	394.155365	3431.804688	813.232727	366.752350	3124.108643	725.100220	84.975243	3482.138184	577.899597	400.983368	3552.288330	623.864563	338.880646	2789.959229	635.666077	214.114288	3344.889648	1163.124878	30.699556	3640.002686	139.424194	351.345825	3799.607910	99.689957	377.649536	3096.648438	616.029602	104.401649	3718.430664	118.394623	357.336334	3217.618164	1293.919434	-12.446023	2609.747559	706.161499	147.078201	2530.533447	622.252197	197.793259	3475.940674	737.666077	353.271088	3314.795654	1399.626099	272.853973	3823.793945	176.916016	311.379211	2864.874023	626.406006	138.302704	2701.625000	805.842163	213.914825	3589.144287	89.753281	297.003174	3744.240479	172.793350	310.940918	3220.504395	1157.901978	-41.436932	3811.647705	154.625122	266.043213	3579.796143	390.066040	316.778595	3511.242188	1170.670654	125.016785	3300.151611	1034.125366	340.978424	3248.312012	682.117249	163.457672	3202.619141	573.471802	176.123917	2904.277832	554.470215	213.105621	3618.381104	269.419678	300.845154	2536.876465	686.368774	117.328789	2528.285400	651.475159	236.893692
311	1.244000	3144.568115	434.430786	200.033554	3072.584229	944.230652	590.391113	3321.939697	1003.738403	132.157013	2655.193848	671.930237	210.383087	3208.160645	1493.871582	245.971024	3250.781250	1481.173096	88.698959	3232.839600	1476.416504	421.274933	3415.804443	692.557495	436.196655	3140.622314	1307.354370	241.824127	3341.890869	777.259338	452.298187	3108.789062	1366.808350	509.452301	3096.718994	510.121674	132.762115	2732.403564	746.254211	158.019562	3102.625732	977.125427	256.341034	3000.125732	1290.852295	555.329041	3037.416504	1149.306519	576.994324	3140.771729	1062.746216	257.453888	3132.531982	1034.773315	205.398117	3126.422363	1032.706909	311.132172	3558.709717	353.628845	393.071747	3456.378418	811.910278	368.979187	3156.671143	720.172668	85.012871	3504.356689	573.697327	401.929718	3576.344971	620.793640	342.740234	2833.904785	639.739624	214.319214	3368.139404	1152.773804	29.121099	3651.355469	131.417404	349.325348	3809.410156	86.826912	376.919464	3131.591064	609.961487	104.318062	3728.997559	108.367455	356.058838	3241.706055	1291.433838	-11.755656	2656.765381	716.061401	146.792847	2572.161377	636.256042	195.611298	3500.840820	735.618042	355.088440	3343.054199	1396.945312	272.772736	3836.588379	164.167679	312.168976	2907.864502	626.990234	138.100388	2751.436279	812.691895	215.279190	3599.526123	83.888184	294.068542	3756.816406	162.284363	310.809082	3242.008789	1155.624390	-40.763111	3824.208740	142.757828	266.183899	3598.955566	384.040466	316.824432	3536.605957	1148.849121	120.029030	3326.790527	1032.107666	341.474243	3281.328369	680.054504	164.159546	3238.415039	570.225037	176.349182	2945.211914	554.281311	213.421112	3634.159912	262.460693	300.138702	2583.813232	698.427124	117.039268	2572.585938	665.346863	236.357895
312	1.248000	3182.952881	429.361542	200.238937	3113.106689	938.184998	593.122192	3349.270508	1001.721436	132.617004	2700.806396	681.221313	210.833023	3236.326904	1491.424316	247.343430	3278.636719	1478.899902	89.134293	3262.302002	1472.758301	422.763733	3438.930664	689.546265	436.137421	3168.374268	1305.141479	242.606018	3365.861328	774.677734	451.639374	3140.272461	1361.155151	512.198730	3134.958740	504.209900	131.977661	2781.040771	752.463379	157.901581	3129.550293	975.128296	255.763824	3033.844727	1283.242798	559.713318	3073.966553	1142.439697	580.456787	3167.648926	1060.726685	256.869781	3158.751709	1032.319580	203.372589	3152.978027	1030.924072	310.664612	3575.460449	348.088593	392.028320	3480.655273	810.894226	371.109161	3189.482422	715.017639	84.721550	3526.425537	569.475159	402.735382	3600.579590	617.298340	346.857758	2878.416992	643.095276	214.335495	3390.809326	1142.232056	27.439625	3661.328125	123.445137	347.502502	3817.735107	73.352333	375.949829	3167.214355	604.347961	104.318619	3738.211914	97.825905	354.597046	3265.971436	1288.802856	-10.960717	2704.434326	724.694397	146.746429	2618.483887	647.551575	197.638641	3525.911133	733.986084	357.302887	3371.456787	1394.269287	272.649475	3848.209717	150.523346	312.243469	2951.726074	626.696289	138.778778	2802.036621	818.662170	214.066757	3608.620605	78.154640	291.340698	3768.186035	151.298996	310.161835	3263.394043	1153.371582	-40.133659	3835.356689	130.149139	265.967133	3617.705078	377.918396	316.937439	3560.733398	1126.615234	114.484299	3353.347412	1029.942017	342.262634	3314.476318	677.934082	164.817230	3274.493408	567.019043	176.565613	2986.807861	553.803406	213.791870	3649.101318	255.404251	299.447876	2631.075684	709.148865	116.876877	2617.839844	677.802246	236.204559
313	1.252000	3221.861816	424.261078	200.417709	3154.070068	932.004211	595.750305	3376.433350	999.650024	133.273285	2747.393799	689.577576	211.587524	3264.683350	1488.811646	248.690216	3306.393799	1476.397949	89.475060	3291.091553	1469.864868	423.896057	3462.139160	686.464355	435.899780	3196.159424	1302.854004	243.393417	3389.395264	771.819763	450.182709	3171.938965	1355.145020	515.054932	3173.534180	498.157806	131.031448	2829.869385	758.005005	157.604019	3156.417725	973.048035	255.029861	3067.813965	1275.258545	564.058044	3110.979004	1135.360962	583.909607	3194.457764	1058.729126	256.060333	3186.767334	1030.130005	204.004196	3179.445801	1029.206909	309.890869	3591.856201	342.664215	391.192719	3505.023193	810.340149	373.156403	3222.569336	709.637573	84.856178	3548.433105	565.383118	403.619934	3624.499268	613.556946	350.996338	2923.547119	645.846619	214.449463	3413.281982	1131.516724	25.429838	3670.355713	115.539879	345.813293	3824.647705	59.581123	374.525848	3203.089600	598.420776	104.348145	3746.345459	87.038651	353.150482	3290.149414	1285.996582	-10.068629	2752.412354	732.040466	146.619156	2663.568115	658.302002	198.395416	3550.809082	732.452393	359.657074	3399.772705	1391.412354	272.446930	3858.040771	136.460861	311.984772	2995.774414	626.126953	138.673477	2852.809326	823.846619	213.096359	3616.423584	72.911980	288.467407	3778.365479	140.070557	309.458313	3284.940918	1150.814209	-39.460705	3845.464600	116.949242	265.402710	3636.035156	371.675018	317.108002	3583.765869	1104.055298	108.568428	3379.687256	1027.512939	342.983856	3348.008789	675.952271	165.404160	3310.989990	563.744751	176.825836	3028.846680	552.738831	213.919785	3663.130371	248.270920	298.766754	2678.752930	718.277161	116.885490	2663.963135	689.110352	236.512421
